<svg xmlns="http://www.w3.org/2000/svg" xmlns:xlink="http://www.w3.org/1999/xlink" viewBox="0 0 974.15 978.01"><defs><style>.cls-1,.cls-4{fill:none;}.cls-2{clip-path:url(#clip-path);}.cls-3{fill:#2463ae;}.cls-4{stroke:#fff;stroke-miterlimit:10;stroke-width:2px;}</style><clipPath id="clip-path"><path class="cls-1" d="M964.32,0S724,389.62,433.92,99.33C334-.61,245-1.85,180.06,27.8,116.37,56.89,65,118.05,36.33,196.12c-44.81,122.06-86.65,357.52,125.33,582C273.45,896.46,412.6,964.94,557.76,975c120.4,8.33,282.35,3,406.56-62Z"></path></clipPath></defs><g id="Layer_2" data-name="Layer 2"><g id="Layer_1-2" data-name="Layer 1"><g class="cls-2"><path class="cls-3" d="M964.32,0S724,389.62,433.92,99.33C334-.61,245-1.85,180.06,27.8,116.37,56.89,65,118.05,36.33,196.12c-44.81,122.06-86.65,357.52,125.33,582C273.45,896.46,412.6,964.94,557.76,975c120.4,8.33,282.35,3,406.56-62Z"></path><path class="cls-4" d="M973.15,58.59S741.9,415.47,457.91,160.07C345.07,58.59,289.52,56.91,227.83,83.91,167.3,110.4,118.47,166.1,91.24,237.19,48.66,348.35,8.9,562.78,210.35,767.19,316.59,875,448.83,937.35,586.78,946.5c114.42,7.58,268.33,2.74,386.37-56.45Z"></path><path class="cls-4" d="M973.15,109S751.54,439,482.16,211.16c-94.2-79.66-161.1-108.34-218.8-83.74-56.6,24.13-102.19,79.24-127.65,144-39.83,101.26-74,302,114.38,488.17,99.35,98.19,232.72,150,361.73,158.29,107,6.91,250.94,2.5,361.33-51.42Z"></path><path class="cls-4" d="M973.15,161.12S737.14,477,488.3,258.65c-85.68-75.16-147.8-101.44-203.49-79.15-54.64,21.88-87.76,70-112.34,128.69C134,400,102.75,577.46,284.6,746.24c95.9,89,215.26,140.51,339.79,148.06,103.28,6.27,242.21,2.27,348.76-46.61Z"></path></g></g></g></svg>